<mxfile host="app.diagrams.net" agent="Mozilla/5.0 (Windows NT 10.0; Win64; x64) AppleWebKit/537.36 (KHTML, like Gecko) Chrome/128.0.0.0 Safari/537.36" version="24.7.14">
  <diagram id="C5RBs43oDa-KdzZeNtuy" name="Page-1">
    <mxGraphModel dx="3027" dy="2234" grid="1" gridSize="10" guides="1" tooltips="1" connect="1" arrows="1" fold="1" page="1" pageScale="1" pageWidth="827" pageHeight="1169" math="0" shadow="0">
      <root>
        <mxCell id="WIyWlLk6GJQsqaUBKTNV-0" />
        <mxCell id="WIyWlLk6GJQsqaUBKTNV-1" parent="WIyWlLk6GJQsqaUBKTNV-0" />
        <mxCell id="WIyWlLk6GJQsqaUBKTNV-4" value="Si" style="rounded=0;html=1;jettySize=auto;orthogonalLoop=1;fontSize=11;endArrow=block;endFill=0;endSize=8;strokeWidth=1;shadow=0;labelBackgroundColor=none;edgeStyle=orthogonalEdgeStyle;entryX=0.5;entryY=0;entryDx=0;entryDy=0;" parent="WIyWlLk6GJQsqaUBKTNV-1" source="WIyWlLk6GJQsqaUBKTNV-6" target="ZRcLw8iHf3mM8T90-nBm-24" edge="1">
          <mxGeometry y="20" relative="1" as="geometry">
            <mxPoint as="offset" />
            <mxPoint x="218.96000000000004" y="311.0000000000001" as="targetPoint" />
          </mxGeometry>
        </mxCell>
        <mxCell id="WIyWlLk6GJQsqaUBKTNV-5" value="No" style="edgeStyle=orthogonalEdgeStyle;rounded=0;html=1;jettySize=auto;orthogonalLoop=1;fontSize=11;endArrow=block;endFill=0;endSize=8;strokeWidth=1;shadow=0;labelBackgroundColor=none;entryX=0.5;entryY=0;entryDx=0;entryDy=0;" parent="WIyWlLk6GJQsqaUBKTNV-1" source="WIyWlLk6GJQsqaUBKTNV-6" target="ZRcLw8iHf3mM8T90-nBm-23" edge="1">
          <mxGeometry y="10" relative="1" as="geometry">
            <mxPoint as="offset" />
            <mxPoint x="565.0000000000002" y="285.0000000000001" as="targetPoint" />
          </mxGeometry>
        </mxCell>
        <mxCell id="WIyWlLk6GJQsqaUBKTNV-6" value="¿Usuario registrado?" style="rhombus;whiteSpace=wrap;html=1;shadow=0;fontFamily=Helvetica;fontSize=12;align=center;strokeWidth=1;spacing=6;spacingTop=-4;fillColor=#d5e8d4;gradientColor=#97d077;strokeColor=#82b366;" parent="WIyWlLk6GJQsqaUBKTNV-1" vertex="1">
          <mxGeometry x="320" y="160" width="100" height="80" as="geometry" />
        </mxCell>
        <mxCell id="0yOMZ6m9HFwqN3H0OVV3-1" style="edgeStyle=orthogonalEdgeStyle;rounded=0;orthogonalLoop=1;jettySize=auto;html=1;entryX=0.5;entryY=0;entryDx=0;entryDy=0;exitX=0.5;exitY=1;exitDx=0;exitDy=0;" parent="WIyWlLk6GJQsqaUBKTNV-1" source="ZRcLw8iHf3mM8T90-nBm-22" target="WIyWlLk6GJQsqaUBKTNV-6" edge="1">
          <mxGeometry relative="1" as="geometry">
            <mxPoint x="370" y="109.99999999999989" as="sourcePoint" />
          </mxGeometry>
        </mxCell>
        <mxCell id="ZRcLw8iHf3mM8T90-nBm-15" style="edgeStyle=orthogonalEdgeStyle;rounded=0;orthogonalLoop=1;jettySize=auto;html=1;exitX=0.5;exitY=1;exitDx=0;exitDy=0;entryX=0.5;entryY=0;entryDx=0;entryDy=0;" edge="1" parent="WIyWlLk6GJQsqaUBKTNV-1" source="ZRcLw8iHf3mM8T90-nBm-24" target="ZRcLw8iHf3mM8T90-nBm-14">
          <mxGeometry relative="1" as="geometry">
            <mxPoint x="209.99999999999977" y="410.0000000000001" as="sourcePoint" />
          </mxGeometry>
        </mxCell>
        <mxCell id="ZRcLw8iHf3mM8T90-nBm-3" style="edgeStyle=orthogonalEdgeStyle;rounded=0;orthogonalLoop=1;jettySize=auto;html=1;entryX=0.5;entryY=0;entryDx=0;entryDy=0;exitX=0.5;exitY=1;exitDx=0;exitDy=0;" edge="1" parent="WIyWlLk6GJQsqaUBKTNV-1" source="ZRcLw8iHf3mM8T90-nBm-23" target="ZRcLw8iHf3mM8T90-nBm-2">
          <mxGeometry relative="1" as="geometry">
            <mxPoint x="565.0000000000002" y="355.0000000000001" as="sourcePoint" />
          </mxGeometry>
        </mxCell>
        <mxCell id="ZRcLw8iHf3mM8T90-nBm-7" style="edgeStyle=orthogonalEdgeStyle;rounded=0;orthogonalLoop=1;jettySize=auto;html=1;entryX=0.25;entryY=0;entryDx=0;entryDy=0;" edge="1" parent="WIyWlLk6GJQsqaUBKTNV-1" source="ZRcLw8iHf3mM8T90-nBm-2" target="ZRcLw8iHf3mM8T90-nBm-13">
          <mxGeometry relative="1" as="geometry">
            <mxPoint x="760" y="390" as="targetPoint" />
            <Array as="points">
              <mxPoint x="960" y="375" />
            </Array>
          </mxGeometry>
        </mxCell>
        <mxCell id="ZRcLw8iHf3mM8T90-nBm-8" value="No" style="edgeLabel;html=1;align=center;verticalAlign=middle;resizable=0;points=[];" vertex="1" connectable="0" parent="ZRcLw8iHf3mM8T90-nBm-7">
          <mxGeometry x="-0.4113" y="-2" relative="1" as="geometry">
            <mxPoint as="offset" />
          </mxGeometry>
        </mxCell>
        <mxCell id="ZRcLw8iHf3mM8T90-nBm-10" style="edgeStyle=orthogonalEdgeStyle;rounded=0;orthogonalLoop=1;jettySize=auto;html=1;entryX=1;entryY=0.5;entryDx=0;entryDy=0;exitX=0;exitY=0.5;exitDx=0;exitDy=0;" edge="1" parent="WIyWlLk6GJQsqaUBKTNV-1" source="ZRcLw8iHf3mM8T90-nBm-2" target="ZRcLw8iHf3mM8T90-nBm-24">
          <mxGeometry relative="1" as="geometry">
            <mxPoint x="274.6153846153845" y="329.61538461538464" as="targetPoint" />
            <Array as="points">
              <mxPoint x="90" y="375" />
            </Array>
          </mxGeometry>
        </mxCell>
        <mxCell id="ZRcLw8iHf3mM8T90-nBm-12" value="Si" style="edgeLabel;html=1;align=center;verticalAlign=middle;resizable=0;points=[];" vertex="1" connectable="0" parent="ZRcLw8iHf3mM8T90-nBm-10">
          <mxGeometry x="-0.5281" y="-4" relative="1" as="geometry">
            <mxPoint as="offset" />
          </mxGeometry>
        </mxCell>
        <mxCell id="ZRcLw8iHf3mM8T90-nBm-2" value="Registro correctamente" style="rhombus;whiteSpace=wrap;html=1;fillColor=#d5e8d4;strokeColor=#82b366;gradientColor=#97d077;" vertex="1" parent="WIyWlLk6GJQsqaUBKTNV-1">
          <mxGeometry x="495" y="330" width="125" height="90" as="geometry" />
        </mxCell>
        <mxCell id="ZRcLw8iHf3mM8T90-nBm-13" value="Comunícate con soporte" style="shape=parallelogram;perimeter=parallelogramPerimeter;whiteSpace=wrap;html=1;fixedSize=1;fillColor=#d5e8d4;strokeColor=#82b366;gradientColor=#97d077;" vertex="1" parent="WIyWlLk6GJQsqaUBKTNV-1">
          <mxGeometry x="930" y="1260" width="120" height="60" as="geometry" />
        </mxCell>
        <mxCell id="ZRcLw8iHf3mM8T90-nBm-16" style="edgeStyle=orthogonalEdgeStyle;rounded=0;orthogonalLoop=1;jettySize=auto;html=1;entryX=0;entryY=0.5;entryDx=0;entryDy=0;" edge="1" parent="WIyWlLk6GJQsqaUBKTNV-1" source="ZRcLw8iHf3mM8T90-nBm-14" target="ZRcLw8iHf3mM8T90-nBm-25">
          <mxGeometry relative="1" as="geometry">
            <mxPoint x="450" y="580" as="targetPoint" />
          </mxGeometry>
        </mxCell>
        <mxCell id="ZRcLw8iHf3mM8T90-nBm-18" value="Si" style="edgeLabel;html=1;align=center;verticalAlign=middle;resizable=0;points=[];" vertex="1" connectable="0" parent="ZRcLw8iHf3mM8T90-nBm-16">
          <mxGeometry x="0.0405" y="5" relative="1" as="geometry">
            <mxPoint y="1" as="offset" />
          </mxGeometry>
        </mxCell>
        <mxCell id="ZRcLw8iHf3mM8T90-nBm-19" style="edgeStyle=orthogonalEdgeStyle;rounded=0;orthogonalLoop=1;jettySize=auto;html=1;entryX=0.5;entryY=0;entryDx=0;entryDy=0;" edge="1" parent="WIyWlLk6GJQsqaUBKTNV-1" source="ZRcLw8iHf3mM8T90-nBm-14" target="ZRcLw8iHf3mM8T90-nBm-48">
          <mxGeometry relative="1" as="geometry">
            <mxPoint x="80" y="790" as="targetPoint" />
            <Array as="points">
              <mxPoint x="80" y="525" />
            </Array>
          </mxGeometry>
        </mxCell>
        <mxCell id="ZRcLw8iHf3mM8T90-nBm-20" value="No" style="edgeLabel;html=1;align=center;verticalAlign=middle;resizable=0;points=[];" vertex="1" connectable="0" parent="ZRcLw8iHf3mM8T90-nBm-19">
          <mxGeometry x="-0.2823" y="2" relative="1" as="geometry">
            <mxPoint as="offset" />
          </mxGeometry>
        </mxCell>
        <mxCell id="ZRcLw8iHf3mM8T90-nBm-14" value="Inicié sesión correctamente?" style="rhombus;whiteSpace=wrap;html=1;fillColor=#d5e8d4;strokeColor=#82b366;gradientColor=#97d077;" vertex="1" parent="WIyWlLk6GJQsqaUBKTNV-1">
          <mxGeometry x="110" y="470" width="170" height="110" as="geometry" />
        </mxCell>
        <mxCell id="ZRcLw8iHf3mM8T90-nBm-22" value="&#xa;&lt;span style=&quot;color: rgb(0, 0, 0); font-family: Helvetica; font-size: 12px; font-style: normal; font-variant-ligatures: normal; font-variant-caps: normal; font-weight: 400; letter-spacing: normal; orphans: 2; text-align: center; text-indent: 0px; text-transform: none; widows: 2; word-spacing: 0px; -webkit-text-stroke-width: 0px; white-space: normal; background-color: rgb(251, 251, 251); text-decoration-thickness: initial; text-decoration-style: initial; text-decoration-color: initial; display: inline !important; float: none;&quot;&gt;Usuario ingresa al sistema&lt;/span&gt;&#xa;&#xa;" style="rounded=0;whiteSpace=wrap;html=1;strokeColor=default;align=center;verticalAlign=middle;fontFamily=Helvetica;fontSize=12;fontColor=default;fillColor=default;" vertex="1" parent="WIyWlLk6GJQsqaUBKTNV-1">
          <mxGeometry x="310" y="20" width="120" height="60" as="geometry" />
        </mxCell>
        <mxCell id="ZRcLw8iHf3mM8T90-nBm-23" value="Registrarse en la aplicación" style="rounded=0;whiteSpace=wrap;html=1;strokeColor=default;align=center;verticalAlign=middle;fontFamily=Helvetica;fontSize=12;fontColor=default;fillColor=default;" vertex="1" parent="WIyWlLk6GJQsqaUBKTNV-1">
          <mxGeometry x="500" y="220" width="120" height="60" as="geometry" />
        </mxCell>
        <mxCell id="ZRcLw8iHf3mM8T90-nBm-24" value="Iniciar sesión" style="rounded=0;whiteSpace=wrap;html=1;align=center;verticalAlign=middle;fontFamily=Helvetica;fontSize=12;" vertex="1" parent="WIyWlLk6GJQsqaUBKTNV-1">
          <mxGeometry x="-60" y="345" width="120" height="60" as="geometry" />
        </mxCell>
        <mxCell id="ZRcLw8iHf3mM8T90-nBm-27" style="edgeStyle=orthogonalEdgeStyle;rounded=0;orthogonalLoop=1;jettySize=auto;html=1;entryX=0.5;entryY=0;entryDx=0;entryDy=0;fontFamily=Helvetica;fontSize=12;fontColor=default;" edge="1" parent="WIyWlLk6GJQsqaUBKTNV-1" source="ZRcLw8iHf3mM8T90-nBm-25" target="ZRcLw8iHf3mM8T90-nBm-26">
          <mxGeometry relative="1" as="geometry" />
        </mxCell>
        <mxCell id="ZRcLw8iHf3mM8T90-nBm-25" value="Proceder a consultar los programas por su institución educativa" style="rounded=0;whiteSpace=wrap;html=1;strokeColor=default;align=center;verticalAlign=middle;fontFamily=Helvetica;fontSize=12;fontColor=default;fillColor=default;" vertex="1" parent="WIyWlLk6GJQsqaUBKTNV-1">
          <mxGeometry x="340" y="492.5" width="180" height="65" as="geometry" />
        </mxCell>
        <mxCell id="ZRcLw8iHf3mM8T90-nBm-28" style="edgeStyle=orthogonalEdgeStyle;rounded=0;orthogonalLoop=1;jettySize=auto;html=1;fontFamily=Helvetica;fontSize=12;fontColor=default;entryX=0.25;entryY=0;entryDx=0;entryDy=0;" edge="1" parent="WIyWlLk6GJQsqaUBKTNV-1" source="ZRcLw8iHf3mM8T90-nBm-26" target="ZRcLw8iHf3mM8T90-nBm-13">
          <mxGeometry relative="1" as="geometry">
            <mxPoint x="719.9999999999998" y="672.5" as="targetPoint" />
            <Array as="points">
              <mxPoint x="960" y="673" />
            </Array>
          </mxGeometry>
        </mxCell>
        <mxCell id="ZRcLw8iHf3mM8T90-nBm-30" value="No" style="edgeLabel;html=1;align=center;verticalAlign=middle;resizable=0;points=[];strokeColor=default;fontFamily=Helvetica;fontSize=12;fontColor=default;fillColor=default;" vertex="1" connectable="0" parent="ZRcLw8iHf3mM8T90-nBm-28">
          <mxGeometry x="-0.3973" y="3" relative="1" as="geometry">
            <mxPoint as="offset" />
          </mxGeometry>
        </mxCell>
        <mxCell id="ZRcLw8iHf3mM8T90-nBm-29" style="edgeStyle=orthogonalEdgeStyle;rounded=0;orthogonalLoop=1;jettySize=auto;html=1;fontFamily=Helvetica;fontSize=12;fontColor=default;entryX=0.5;entryY=0;entryDx=0;entryDy=0;" edge="1" parent="WIyWlLk6GJQsqaUBKTNV-1" source="ZRcLw8iHf3mM8T90-nBm-26" target="ZRcLw8iHf3mM8T90-nBm-32">
          <mxGeometry relative="1" as="geometry">
            <mxPoint x="290" y="672.5" as="targetPoint" />
          </mxGeometry>
        </mxCell>
        <mxCell id="ZRcLw8iHf3mM8T90-nBm-31" value="Si" style="edgeLabel;html=1;align=center;verticalAlign=middle;resizable=0;points=[];strokeColor=default;fontFamily=Helvetica;fontSize=12;fontColor=default;fillColor=default;" vertex="1" connectable="0" parent="ZRcLw8iHf3mM8T90-nBm-29">
          <mxGeometry x="-0.0097" relative="1" as="geometry">
            <mxPoint as="offset" />
          </mxGeometry>
        </mxCell>
        <mxCell id="ZRcLw8iHf3mM8T90-nBm-26" value="¿Encontró su institución?" style="rhombus;whiteSpace=wrap;html=1;strokeColor=#82b366;align=center;verticalAlign=middle;fontFamily=Helvetica;fontSize=12;fillColor=#d5e8d4;gradientColor=#97d077;" vertex="1" parent="WIyWlLk6GJQsqaUBKTNV-1">
          <mxGeometry x="380" y="600" width="120" height="105" as="geometry" />
        </mxCell>
        <mxCell id="ZRcLw8iHf3mM8T90-nBm-34" style="edgeStyle=orthogonalEdgeStyle;rounded=0;orthogonalLoop=1;jettySize=auto;html=1;entryX=0.5;entryY=0;entryDx=0;entryDy=0;fontFamily=Helvetica;fontSize=12;fontColor=default;" edge="1" parent="WIyWlLk6GJQsqaUBKTNV-1" source="ZRcLw8iHf3mM8T90-nBm-32" target="ZRcLw8iHf3mM8T90-nBm-33">
          <mxGeometry relative="1" as="geometry" />
        </mxCell>
        <mxCell id="ZRcLw8iHf3mM8T90-nBm-32" value="Seleccionar el programa que esté vinculado a esa institución" style="rounded=0;whiteSpace=wrap;html=1;strokeColor=default;align=center;verticalAlign=middle;fontFamily=Helvetica;fontSize=12;fontColor=default;fillColor=default;" vertex="1" parent="WIyWlLk6GJQsqaUBKTNV-1">
          <mxGeometry x="250" y="750" width="120" height="60" as="geometry" />
        </mxCell>
        <mxCell id="ZRcLw8iHf3mM8T90-nBm-37" style="edgeStyle=orthogonalEdgeStyle;rounded=0;orthogonalLoop=1;jettySize=auto;html=1;entryX=0;entryY=0.5;entryDx=0;entryDy=0;fontFamily=Helvetica;fontSize=12;fontColor=default;" edge="1" parent="WIyWlLk6GJQsqaUBKTNV-1" source="ZRcLw8iHf3mM8T90-nBm-33" target="ZRcLw8iHf3mM8T90-nBm-36">
          <mxGeometry relative="1" as="geometry" />
        </mxCell>
        <mxCell id="ZRcLw8iHf3mM8T90-nBm-33" value="Seleccionar, visualizar archivos o diligenciar formularios." style="rounded=0;whiteSpace=wrap;html=1;strokeColor=default;align=center;verticalAlign=middle;fontFamily=Helvetica;fontSize=12;fontColor=default;fillColor=default;" vertex="1" parent="WIyWlLk6GJQsqaUBKTNV-1">
          <mxGeometry x="250" y="880" width="120" height="60" as="geometry" />
        </mxCell>
        <mxCell id="ZRcLw8iHf3mM8T90-nBm-38" style="edgeStyle=orthogonalEdgeStyle;rounded=0;orthogonalLoop=1;jettySize=auto;html=1;fontFamily=Helvetica;fontSize=12;fontColor=default;" edge="1" parent="WIyWlLk6GJQsqaUBKTNV-1" source="ZRcLw8iHf3mM8T90-nBm-36">
          <mxGeometry relative="1" as="geometry">
            <mxPoint x="750" y="950" as="targetPoint" />
            <Array as="points">
              <mxPoint x="710" y="910" />
              <mxPoint x="780" y="911" />
            </Array>
          </mxGeometry>
        </mxCell>
        <mxCell id="ZRcLw8iHf3mM8T90-nBm-41" value="Si&lt;div&gt;&lt;br&gt;&lt;/div&gt;" style="edgeLabel;html=1;align=center;verticalAlign=middle;resizable=0;points=[];strokeColor=default;fontFamily=Helvetica;fontSize=12;fontColor=default;fillColor=default;" vertex="1" connectable="0" parent="ZRcLw8iHf3mM8T90-nBm-38">
          <mxGeometry x="-0.2034" y="-1" relative="1" as="geometry">
            <mxPoint as="offset" />
          </mxGeometry>
        </mxCell>
        <mxCell id="ZRcLw8iHf3mM8T90-nBm-40" style="edgeStyle=orthogonalEdgeStyle;rounded=0;orthogonalLoop=1;jettySize=auto;html=1;fontFamily=Helvetica;fontSize=12;fontColor=default;entryX=0.5;entryY=1;entryDx=0;entryDy=0;" edge="1" parent="WIyWlLk6GJQsqaUBKTNV-1" source="ZRcLw8iHf3mM8T90-nBm-36" target="ZRcLw8iHf3mM8T90-nBm-33">
          <mxGeometry relative="1" as="geometry">
            <mxPoint x="540" y="1050" as="targetPoint" />
          </mxGeometry>
        </mxCell>
        <mxCell id="ZRcLw8iHf3mM8T90-nBm-42" value="No" style="edgeLabel;html=1;align=center;verticalAlign=middle;resizable=0;points=[];strokeColor=default;fontFamily=Helvetica;fontSize=12;fontColor=default;fillColor=default;" vertex="1" connectable="0" parent="ZRcLw8iHf3mM8T90-nBm-40">
          <mxGeometry x="-0.4415" y="1" relative="1" as="geometry">
            <mxPoint as="offset" />
          </mxGeometry>
        </mxCell>
        <mxCell id="ZRcLw8iHf3mM8T90-nBm-36" value="Diligenciar el formulario." style="rhombus;whiteSpace=wrap;html=1;strokeColor=#82b366;align=center;verticalAlign=middle;fontFamily=Helvetica;fontSize=12;fillColor=#d5e8d4;gradientColor=#97d077;" vertex="1" parent="WIyWlLk6GJQsqaUBKTNV-1">
          <mxGeometry x="450" y="855" width="190" height="110" as="geometry" />
        </mxCell>
        <mxCell id="ZRcLw8iHf3mM8T90-nBm-46" style="edgeStyle=orthogonalEdgeStyle;rounded=0;orthogonalLoop=1;jettySize=auto;html=1;entryX=0.5;entryY=0;entryDx=0;entryDy=0;fontFamily=Helvetica;fontSize=12;fontColor=default;" edge="1" parent="WIyWlLk6GJQsqaUBKTNV-1" source="ZRcLw8iHf3mM8T90-nBm-43" target="ZRcLw8iHf3mM8T90-nBm-45">
          <mxGeometry relative="1" as="geometry" />
        </mxCell>
        <mxCell id="ZRcLw8iHf3mM8T90-nBm-43" value="Proporcionar la información requerida en el formulario." style="rounded=0;whiteSpace=wrap;html=1;strokeColor=default;align=center;verticalAlign=middle;fontFamily=Helvetica;fontSize=12;fontColor=default;fillColor=default;" vertex="1" parent="WIyWlLk6GJQsqaUBKTNV-1">
          <mxGeometry x="707" y="960" width="120" height="60" as="geometry" />
        </mxCell>
        <mxCell id="ZRcLw8iHf3mM8T90-nBm-45" value="Descargar el pdf" style="rounded=0;whiteSpace=wrap;html=1;strokeColor=default;align=center;verticalAlign=middle;fontFamily=Helvetica;fontSize=12;fontColor=default;fillColor=default;" vertex="1" parent="WIyWlLk6GJQsqaUBKTNV-1">
          <mxGeometry x="707" y="1100" width="120" height="60" as="geometry" />
        </mxCell>
        <mxCell id="ZRcLw8iHf3mM8T90-nBm-49" style="edgeStyle=orthogonalEdgeStyle;rounded=0;orthogonalLoop=1;jettySize=auto;html=1;fontFamily=Helvetica;fontSize=12;fontColor=default;entryX=0.5;entryY=0;entryDx=0;entryDy=0;" edge="1" parent="WIyWlLk6GJQsqaUBKTNV-1" source="ZRcLw8iHf3mM8T90-nBm-48" target="ZRcLw8iHf3mM8T90-nBm-53">
          <mxGeometry relative="1" as="geometry">
            <mxPoint x="110" y="1120" as="targetPoint" />
            <Array as="points" />
          </mxGeometry>
        </mxCell>
        <mxCell id="ZRcLw8iHf3mM8T90-nBm-50" value="Si" style="edgeLabel;html=1;align=center;verticalAlign=middle;resizable=0;points=[];strokeColor=default;fontFamily=Helvetica;fontSize=12;fontColor=default;fillColor=default;" vertex="1" connectable="0" parent="ZRcLw8iHf3mM8T90-nBm-49">
          <mxGeometry x="-0.6159" y="2" relative="1" as="geometry">
            <mxPoint as="offset" />
          </mxGeometry>
        </mxCell>
        <mxCell id="ZRcLw8iHf3mM8T90-nBm-51" style="edgeStyle=orthogonalEdgeStyle;rounded=0;orthogonalLoop=1;jettySize=auto;html=1;fontFamily=Helvetica;fontSize=12;fontColor=default;entryX=0;entryY=0.5;entryDx=0;entryDy=0;" edge="1" parent="WIyWlLk6GJQsqaUBKTNV-1" source="ZRcLw8iHf3mM8T90-nBm-48" target="ZRcLw8iHf3mM8T90-nBm-13">
          <mxGeometry relative="1" as="geometry">
            <mxPoint x="128.94736842105263" y="1310" as="targetPoint" />
            <Array as="points">
              <mxPoint x="-50" y="910" />
              <mxPoint x="-50" y="1290" />
            </Array>
          </mxGeometry>
        </mxCell>
        <mxCell id="ZRcLw8iHf3mM8T90-nBm-52" value="No" style="edgeLabel;html=1;align=center;verticalAlign=middle;resizable=0;points=[];strokeColor=default;fontFamily=Helvetica;fontSize=12;fontColor=default;fillColor=default;" vertex="1" connectable="0" parent="ZRcLw8iHf3mM8T90-nBm-51">
          <mxGeometry x="0.3533" y="-1" relative="1" as="geometry">
            <mxPoint as="offset" />
          </mxGeometry>
        </mxCell>
        <mxCell id="ZRcLw8iHf3mM8T90-nBm-48" value="¿Olvidaste tu contraseña?" style="rhombus;whiteSpace=wrap;html=1;strokeColor=#82b366;align=center;verticalAlign=middle;fontFamily=Helvetica;fontSize=12;fillColor=#d5e8d4;gradientColor=#97d077;" vertex="1" parent="WIyWlLk6GJQsqaUBKTNV-1">
          <mxGeometry x="10" y="860" width="140" height="100" as="geometry" />
        </mxCell>
        <mxCell id="ZRcLw8iHf3mM8T90-nBm-55" style="edgeStyle=orthogonalEdgeStyle;rounded=0;orthogonalLoop=1;jettySize=auto;html=1;entryX=0;entryY=0.5;entryDx=0;entryDy=0;fontFamily=Helvetica;fontSize=12;fontColor=default;" edge="1" parent="WIyWlLk6GJQsqaUBKTNV-1" source="ZRcLw8iHf3mM8T90-nBm-53" target="ZRcLw8iHf3mM8T90-nBm-54">
          <mxGeometry relative="1" as="geometry" />
        </mxCell>
        <mxCell id="ZRcLw8iHf3mM8T90-nBm-53" value="Procede con la recuperación de la contraseña." style="rounded=0;whiteSpace=wrap;html=1;strokeColor=default;align=center;verticalAlign=middle;fontFamily=Helvetica;fontSize=12;fontColor=default;fillColor=default;" vertex="1" parent="WIyWlLk6GJQsqaUBKTNV-1">
          <mxGeometry x="20" y="1109" width="120" height="60" as="geometry" />
        </mxCell>
        <mxCell id="ZRcLw8iHf3mM8T90-nBm-58" style="edgeStyle=orthogonalEdgeStyle;rounded=0;orthogonalLoop=1;jettySize=auto;html=1;entryX=0;entryY=0.5;entryDx=0;entryDy=0;fontFamily=Helvetica;fontSize=12;fontColor=default;" edge="1" parent="WIyWlLk6GJQsqaUBKTNV-1" source="ZRcLw8iHf3mM8T90-nBm-54" target="ZRcLw8iHf3mM8T90-nBm-13">
          <mxGeometry relative="1" as="geometry" />
        </mxCell>
        <mxCell id="ZRcLw8iHf3mM8T90-nBm-59" value="No" style="edgeLabel;html=1;align=center;verticalAlign=middle;resizable=0;points=[];strokeColor=default;fontFamily=Helvetica;fontSize=12;fontColor=default;fillColor=default;" vertex="1" connectable="0" parent="ZRcLw8iHf3mM8T90-nBm-58">
          <mxGeometry x="-0.6396" y="3" relative="1" as="geometry">
            <mxPoint as="offset" />
          </mxGeometry>
        </mxCell>
        <mxCell id="ZRcLw8iHf3mM8T90-nBm-54" value="La contraseña se ha recuperado exitosamente.?" style="rhombus;whiteSpace=wrap;html=1;strokeColor=#82b366;align=center;verticalAlign=middle;fontFamily=Helvetica;fontSize=12;fillColor=#d5e8d4;gradientColor=#97d077;" vertex="1" parent="WIyWlLk6GJQsqaUBKTNV-1">
          <mxGeometry x="240" y="1130" width="220" height="150" as="geometry" />
        </mxCell>
        <mxCell id="ZRcLw8iHf3mM8T90-nBm-56" style="edgeStyle=orthogonalEdgeStyle;rounded=0;orthogonalLoop=1;jettySize=auto;html=1;entryX=0.058;entryY=1.025;entryDx=0;entryDy=0;entryPerimeter=0;fontFamily=Helvetica;fontSize=12;fontColor=default;" edge="1" parent="WIyWlLk6GJQsqaUBKTNV-1" source="ZRcLw8iHf3mM8T90-nBm-54" target="ZRcLw8iHf3mM8T90-nBm-24">
          <mxGeometry relative="1" as="geometry" />
        </mxCell>
        <mxCell id="ZRcLw8iHf3mM8T90-nBm-57" value="Si" style="edgeLabel;html=1;align=center;verticalAlign=middle;resizable=0;points=[];strokeColor=default;fontFamily=Helvetica;fontSize=12;fontColor=default;fillColor=default;" vertex="1" connectable="0" parent="ZRcLw8iHf3mM8T90-nBm-56">
          <mxGeometry x="-0.6744" y="-1" relative="1" as="geometry">
            <mxPoint as="offset" />
          </mxGeometry>
        </mxCell>
        <mxCell id="ZRcLw8iHf3mM8T90-nBm-60" value="Fin" style="strokeWidth=2;html=1;shape=mxgraph.flowchart.start_1;whiteSpace=wrap;strokeColor=#ae4132;align=center;verticalAlign=middle;fontFamily=Helvetica;fontSize=12;fillColor=#fad9d5;" vertex="1" parent="WIyWlLk6GJQsqaUBKTNV-1">
          <mxGeometry x="840" y="1460" width="100" height="60" as="geometry" />
        </mxCell>
        <mxCell id="ZRcLw8iHf3mM8T90-nBm-61" style="edgeStyle=orthogonalEdgeStyle;rounded=0;orthogonalLoop=1;jettySize=auto;html=1;entryX=0.5;entryY=0;entryDx=0;entryDy=0;entryPerimeter=0;fontFamily=Helvetica;fontSize=12;fontColor=default;" edge="1" parent="WIyWlLk6GJQsqaUBKTNV-1" source="ZRcLw8iHf3mM8T90-nBm-45" target="ZRcLw8iHf3mM8T90-nBm-60">
          <mxGeometry relative="1" as="geometry" />
        </mxCell>
        <mxCell id="ZRcLw8iHf3mM8T90-nBm-62" style="edgeStyle=orthogonalEdgeStyle;rounded=0;orthogonalLoop=1;jettySize=auto;html=1;entryX=0.5;entryY=0;entryDx=0;entryDy=0;entryPerimeter=0;fontFamily=Helvetica;fontSize=12;fontColor=default;" edge="1" parent="WIyWlLk6GJQsqaUBKTNV-1" source="ZRcLw8iHf3mM8T90-nBm-13" target="ZRcLw8iHf3mM8T90-nBm-60">
          <mxGeometry relative="1" as="geometry">
            <Array as="points">
              <mxPoint x="990" y="1340" />
              <mxPoint x="890" y="1340" />
            </Array>
          </mxGeometry>
        </mxCell>
        <mxCell id="ZRcLw8iHf3mM8T90-nBm-64" style="edgeStyle=orthogonalEdgeStyle;rounded=0;orthogonalLoop=1;jettySize=auto;html=1;entryX=0.5;entryY=0;entryDx=0;entryDy=0;fontFamily=Helvetica;fontSize=12;fontColor=default;" edge="1" parent="WIyWlLk6GJQsqaUBKTNV-1" source="ZRcLw8iHf3mM8T90-nBm-63" target="ZRcLw8iHf3mM8T90-nBm-22">
          <mxGeometry relative="1" as="geometry" />
        </mxCell>
        <mxCell id="ZRcLw8iHf3mM8T90-nBm-63" value="Inicio" style="strokeWidth=2;html=1;shape=mxgraph.flowchart.start_1;whiteSpace=wrap;strokeColor=#ae4132;align=center;verticalAlign=middle;fontFamily=Helvetica;fontSize=12;fillColor=#fad9d5;" vertex="1" parent="WIyWlLk6GJQsqaUBKTNV-1">
          <mxGeometry x="320" y="-90" width="100" height="60" as="geometry" />
        </mxCell>
      </root>
    </mxGraphModel>
  </diagram>
</mxfile>
